<svg xmlns="http://www.w3.org/2000/svg" viewBox="0 0 512 512" width="512" height="512">
  <!-- Background with rounded corners -->
  <rect width="512" height="512" fill="#3b82f6" rx="64"/>
  
  <!-- Building/Hotel icon -->
  <g fill="#ffffff">
    <!-- Main building -->
    <rect x="120" y="160" width="272" height="272" rx="16"/>
    
    <!-- Windows row 1 -->
    <rect x="160" y="200" width="48" height="48" rx="8" fill="#3b82f6"/>
    <rect x="232" y="200" width="48" height="48" rx="8" fill="#3b82f6"/>
    <rect x="304" y="200" width="48" height="48" rx="8" fill="#3b82f6"/>
    
    <!-- Windows row 2 -->
    <rect x="160" y="272" width="48" height="48" rx="8" fill="#3b82f6"/>
    <rect x="232" y="272" width="48" height="48" rx="8" fill="#3b82f6"/>
    <rect x="304" y="272" width="48" height="48" rx="8" fill="#3b82f6"/>
    
    <!-- Door -->
    <rect x="224" y="360" width="64" height="72" rx="8" fill="#3b82f6"/>
    
    <!-- Roof accent -->
    <rect x="200" y="128" width="112" height="40" rx="8"/>
    
    <!-- Flag pole -->
    <rect x="252" y="80" width="8" height="56"/>
    <path d="M260 80 L300 96 L260 112 Z" fill="#fbbf24"/>
  </g>
  
  <!-- Sparkle/Star accent -->
  <circle cx="400" cy="120" r="16" fill="#fbbf24"/>
</svg>

